<svg width="90" height="18" viewBox="0 0 90 18" fill="none" xmlns="http://www.w3.org/2000/svg">
<g clip-path="url(#clip0_0_266)">
<path d="M0 6.36794L1.72688 3.36267H5.02496L3.29913 6.36542L6.48374 11.8006L10.6344 11.7659L13.5382 6.81009L15.2034 9.59744L15.2006 9.60196L12.2835 14.5807L6.47701 14.6283L6.47439 14.6241L4.84555 14.6375L0 6.36794Z" fill="url(#paint0_linear_0_266)"/>
<path d="M17.4192 0L19.205 2.95423L17.5487 5.7478L15.7647 2.79557H9.36776L7.31404 6.32854L10.2305 11.2478L6.93405 11.2747L6.93143 11.2701L4.00159 6.3281L6.87485 1.38645H6.87994L7.68624 0H17.4192Z" fill="url(#paint1_linear_0_266)"/>
<path d="M18.3793 8.30462L18.3817 8.29995L15.4427 3.36267H9.62079H9.6151L8.00146 6.1809H13.7971L15.8987 9.71047L12.7208 15.1532L9.22546 15.1818L10.8711 18.0001L14.3684 17.971L19.2039 9.68988L18.3793 8.30462Z" fill="url(#paint2_linear_0_266)"/>
<path d="M24.0366 15.0127C24.4251 15.0127 24.7446 14.8863 24.9806 14.6529L24.8036 14.4147C24.6167 14.6043 24.3415 14.7112 24.0711 14.7112C23.5598 14.7112 23.2451 14.3418 23.2157 13.8995H25.1379V13.8071C25.1379 13.1022 24.7151 12.548 23.9973 12.548C23.3189 12.548 22.8272 13.0973 22.8272 13.7779C22.8272 14.5119 23.3335 15.0127 24.0366 15.0127ZM24.774 13.6321H23.2156C23.2352 13.2723 23.4859 12.8494 23.9923 12.8494C24.5332 12.8494 24.7691 13.2821 24.774 13.6321Z" fill="white"/>
<path d="M27.0678 14.9543L28.056 12.6063H27.6528L26.8662 14.5314L26.0747 12.6063H25.6765L26.6647 14.9543H27.0678Z" fill="white"/>
<path d="M29.773 15.0127C30.4957 15.0127 30.948 14.4585 30.948 13.7779C30.948 13.0973 30.4957 12.548 29.773 12.548C29.0503 12.548 28.598 13.0973 28.598 13.7779C28.598 14.4585 29.0502 15.0127 29.773 15.0127ZM29.773 14.6869C29.2666 14.6869 28.9815 14.2592 28.9815 13.7779C28.9815 13.3015 29.2666 12.8737 29.773 12.8737C30.2794 12.8737 30.5596 13.3015 30.5596 13.7779C30.5596 14.2592 30.2793 14.6869 29.773 14.6869Z" fill="white"/>
<path d="M32.2119 14.9543V11.7119H31.8432V14.9543H32.2119Z" fill="white"/>
<path d="M35.2144 14.9543V12.6063H34.8457V14.332C34.7081 14.5217 34.4327 14.6869 34.1427 14.6869C33.8231 14.6869 33.6117 14.5654 33.6117 14.1522V12.6063H33.243V14.264C33.243 14.7744 33.5035 15.0126 34.0001 15.0126C34.354 15.0126 34.6637 14.8279 34.8457 14.6237V14.9543H35.2144Z" fill="white"/>
<path d="M36.8451 15.0127C37.0614 15.0127 37.1942 14.9495 37.2876 14.862L37.1794 14.5898C37.1302 14.6433 37.0319 14.687 36.9287 14.687C36.7664 14.687 36.6878 14.5607 36.6878 14.3856V12.9272H37.1695V12.6064H36.6878V11.9647H36.3191V12.6064H35.9258V12.9272H36.3191V14.4634C36.319 14.8134 36.496 15.0127 36.8451 15.0127Z" fill="white"/>
<path d="M38.1677 12.271C38.3053 12.271 38.4184 12.164 38.4184 12.0279C38.4184 11.8918 38.3053 11.78 38.1677 11.78C38.035 11.78 37.9219 11.8918 37.9219 12.0279C37.9219 12.164 38.035 12.271 38.1677 12.271ZM38.3545 14.9543V12.6064H37.9859V14.9543H38.3545Z" fill="white"/>
<path d="M40.4223 15.0127C41.145 15.0127 41.5973 14.4585 41.5973 13.7779C41.5973 13.0973 41.145 12.548 40.4223 12.548C39.6996 12.548 39.2473 13.0973 39.2473 13.7779C39.2473 14.4585 39.6996 15.0127 40.4223 15.0127ZM40.4223 14.6869C39.9159 14.6869 39.6307 14.2592 39.6307 13.7779C39.6307 13.3015 39.9159 12.8737 40.4223 12.8737C40.9287 12.8737 41.2089 13.3015 41.2089 13.7779C41.2089 14.2592 40.9287 14.6869 40.4223 14.6869Z" fill="white"/>
<path d="M44.4642 14.9543V13.3063C44.4642 12.7959 44.2037 12.548 43.7071 12.548C43.3531 12.548 43.0286 12.7522 42.8615 12.9466V12.6063H42.4928V14.9543H42.8615V13.2383C42.9991 13.0487 43.2745 12.8737 43.5645 12.8737C43.8841 12.8737 44.0955 13.0049 44.0955 13.4182V14.9543H44.4642Z" fill="white"/>
<path d="M48.0961 15.0127C48.8188 15.0127 49.2711 14.4585 49.2711 13.7779C49.2711 13.0973 48.8188 12.548 48.0961 12.548C47.3734 12.548 46.9211 13.0973 46.9211 13.7779C46.9211 14.4585 47.3734 15.0127 48.0961 15.0127ZM48.0961 14.6869C47.5897 14.6869 47.3046 14.2592 47.3046 13.7779C47.3046 13.3015 47.5897 12.8737 48.0961 12.8737C48.6025 12.8737 48.8827 13.3015 48.8827 13.7779C48.8827 14.2592 48.6025 14.6869 48.0961 14.6869Z" fill="white"/>
<path d="M50.6392 14.9545V12.9274H51.121V12.6066H50.6392V12.4268C50.6392 12.1302 50.7719 11.9649 51.0128 11.9649C51.1357 11.9649 51.2291 12.0136 51.3078 12.0816L51.4602 11.8434C51.3127 11.7073 51.1455 11.6636 50.9587 11.6636C50.5359 11.6636 50.2704 11.9455 50.2704 12.4268V12.6066H49.8771V12.9274H50.2704V14.9545H50.6392Z" fill="white"/>
<path d="M53.2843 15.8731C53.3531 15.8925 53.476 15.9071 53.5547 15.9071C53.8694 15.9022 54.1103 15.771 54.2529 15.4307L55.4426 12.6063H55.0395L54.2529 14.5314L53.4613 12.6063H53.063L54.0562 14.9786L53.8988 15.3334C53.8152 15.5279 53.7071 15.5814 53.5449 15.5814C53.4858 15.5814 53.3974 15.5668 53.3433 15.5425L53.2843 15.8731Z" fill="white"/>
<path d="M57.1593 15.0127C57.882 15.0127 58.3343 14.4585 58.3343 13.7779C58.3343 13.0973 57.882 12.548 57.1593 12.548C56.4366 12.548 55.9843 13.0973 55.9843 13.7779C55.9843 14.4585 56.4366 15.0127 57.1593 15.0127ZM57.1593 14.6869C56.6529 14.6869 56.3677 14.2592 56.3677 13.7779C56.3677 13.3015 56.6529 12.8737 57.1593 12.8737C57.6657 12.8737 57.9459 13.3015 57.9459 13.7779C57.9459 14.2592 57.6657 14.6869 57.1593 14.6869Z" fill="white"/>
<path d="M61.2018 14.9543V12.6063H60.8332V14.332C60.6954 14.5217 60.4202 14.6869 60.1301 14.6869C59.8106 14.6869 59.5991 14.5654 59.5991 14.1522V12.6063H59.2305V14.264C59.2305 14.7744 59.491 15.0126 59.9875 15.0126C60.3415 15.0126 60.6512 14.8279 60.8332 14.6237V14.9543H61.2018Z" fill="white"/>
<path d="M62.6018 14.9545V13.292C62.71 13.1024 63.0197 12.9177 63.2459 12.9177C63.3049 12.9177 63.3491 12.9226 63.3933 12.9323V12.558C63.0689 12.558 62.7935 12.7378 62.6018 12.9858V12.6066H62.2331V14.9545H62.6018Z" fill="white"/>
<path d="M66.0817 14.3175V13.2529C66.2095 13.0487 66.4996 12.8737 66.7897 12.8737C67.2714 12.8737 67.5566 13.2627 67.5566 13.7827C67.5566 14.3029 67.2714 14.687 66.7897 14.687C66.4996 14.687 66.2095 14.5217 66.0817 14.3175ZM66.0817 14.9543V14.6043C66.2586 14.8425 66.5487 15.0127 66.8831 15.0127C67.5025 15.0127 67.94 14.546 67.94 13.7827C67.94 13.0341 67.5025 12.548 66.8831 12.548C66.5585 12.548 66.2734 12.7036 66.0817 12.9613V11.7119H65.713V14.9543H66.0817Z" fill="white"/>
<path d="M70.8072 14.9543V12.6063H70.4384V14.332C70.3008 14.5217 70.0255 14.6869 69.7354 14.6869C69.4158 14.6869 69.2044 14.5654 69.2044 14.1522V12.6063H68.8357V14.264C68.8357 14.7744 69.0963 15.0126 69.5928 15.0126C69.9468 15.0126 70.2565 14.8279 70.4384 14.6237V14.9543H70.8072Z" fill="white"/>
<path d="M72.591 15.0127C73.2056 15.0127 73.5251 14.6966 73.5251 14.3029C73.5251 13.389 72.0551 13.7293 72.0551 13.214C72.0551 13.0049 72.2567 12.8446 72.5811 12.8446C72.886 12.8446 73.1465 12.9709 73.2891 13.1411L73.4612 12.8883C73.2694 12.6987 72.9843 12.548 72.5811 12.548C72.0158 12.548 71.6962 12.8592 71.6962 13.2237C71.6962 14.0939 73.1662 13.7438 73.1662 14.3126C73.1662 14.546 72.9696 14.7161 72.6058 14.7161C72.2812 14.7161 71.9813 14.5606 71.824 14.3806L71.6323 14.6432C71.8731 14.896 72.2025 15.0127 72.591 15.0127Z" fill="white"/>
<path d="M74.6011 12.271C74.7388 12.271 74.8516 12.164 74.8516 12.0279C74.8516 11.8918 74.7388 11.78 74.6011 11.78C74.4684 11.78 74.3553 11.8918 74.3553 12.0279C74.3553 12.164 74.4684 12.271 74.6011 12.271ZM74.7879 14.9543V12.6064H74.4192V14.9543H74.7879Z" fill="white"/>
<path d="M77.7905 14.9543V13.3063C77.7905 12.7959 77.53 12.548 77.0331 12.548C76.679 12.548 76.355 12.7522 76.1873 12.9466V12.6063H75.8191V14.9543H76.1873V13.2383C76.325 13.0487 76.6005 12.8737 76.8909 12.8737C77.2104 12.8737 77.4215 13.0049 77.4215 13.4182V14.9543H77.7905Z" fill="white"/>
<path d="M79.8927 15.0127C80.2811 15.0127 80.6007 14.8863 80.8365 14.6529L80.6598 14.4147C80.4727 14.6043 80.1973 14.7112 79.9271 14.7112C79.4159 14.7112 79.1009 14.3418 79.0717 13.8995H80.9937V13.8071C80.9937 13.1022 80.5708 12.548 79.853 12.548C79.175 12.548 78.6832 13.0973 78.6832 13.7779C78.6832 14.5119 79.1899 15.0127 79.8927 15.0127ZM80.6299 13.6321H79.0717C79.0911 13.2723 79.3419 12.8494 79.8485 12.8494C80.3889 12.8494 80.6254 13.2821 80.6299 13.6321Z" fill="white"/>
<path d="M82.6384 15.0127C83.2528 15.0127 83.5724 14.6966 83.5724 14.3029C83.5724 13.389 82.1025 13.7293 82.1025 13.214C82.1025 13.0049 82.3046 12.8446 82.6286 12.8446C82.9333 12.8446 83.1945 12.9709 83.3367 13.1411L83.5088 12.8883C83.3172 12.6987 83.0321 12.548 82.6286 12.548C82.0636 12.548 81.744 12.8592 81.744 13.2237C81.744 14.0939 83.2139 13.7438 83.2139 14.3126C83.2139 14.546 83.0171 14.7161 82.6533 14.7161C82.3285 14.7161 82.0292 14.5606 81.872 14.3806L81.6796 14.6432C81.9206 14.896 82.2499 15.0127 82.6384 15.0127Z" fill="white"/>
<path d="M85.2184 15.0127C85.8329 15.0127 86.1524 14.6966 86.1524 14.3029C86.1524 13.389 84.6825 13.7293 84.6825 13.214C84.6825 13.0049 84.8838 12.8446 85.2087 12.8446C85.5133 12.8446 85.7737 12.9709 85.9167 13.1411L86.0881 12.8883C85.8965 12.6987 85.6113 12.548 85.2087 12.548C84.6428 12.548 84.3233 12.8592 84.3233 13.2237C84.3233 14.0939 85.7932 13.7438 85.7932 14.3126C85.7932 14.546 85.5971 14.7161 85.2334 14.7161C84.9085 14.7161 84.6084 14.5606 84.4512 14.3806L84.2596 14.6432C84.5006 14.896 84.83 15.0127 85.2184 15.0127Z" fill="white"/>
<path d="M30.4721 10.0078L32.2788 4.13794H30.6564L29.5502 8.08766L28.2474 4.13794H26.8586L25.5558 8.08766L24.4496 4.13794H22.8272L24.6339 10.0078H26.3055L27.5592 6.0095L28.8128 10.0078H30.4721Z" fill="white"/>
<path d="M36.0834 10.1538C37.0052 10.1538 37.9393 9.87421 38.5292 9.33954L37.841 8.34295C37.4599 8.70754 36.7594 8.92628 36.2555 8.92628C35.2476 8.92628 34.6454 8.3065 34.5471 7.56517H38.9594V7.22487C38.9594 5.30471 37.7549 3.99219 35.9851 3.99219C34.1783 3.99219 32.9124 5.36545 32.9124 7.06687C32.9123 8.95065 34.2766 10.1538 36.0834 10.1538ZM37.4477 6.51998H34.5225C34.5963 5.93664 35.0141 5.2196 35.9851 5.2196C37.0174 5.21967 37.4107 5.96101 37.4477 6.51998Z" fill="white"/>
<path d="M41.8939 8.12435V6.04619C42.152 5.6573 42.7297 5.3656 43.2336 5.3656C44.1431 5.3656 44.7453 6.05834 44.7453 7.07916C44.7453 8.09998 44.1431 8.78065 43.2336 8.78065C42.7297 8.78065 42.152 8.50109 41.8939 8.12435ZM41.8939 10.0081V9.25458C42.3609 9.83791 43.0124 10.1539 43.7252 10.1539C45.2247 10.1539 46.3554 9.03584 46.3554 7.07923C46.3554 5.15908 45.237 3.99241 43.7252 3.99241C43.0247 3.99241 42.3609 4.29626 41.8939 4.89174V1.9021H40.3329V10.0081L41.8939 10.0081Z" fill="white"/>
<path d="M50.5335 10.1538C52.4999 10.1538 53.6799 8.74398 53.6799 7.06687C53.6799 5.4019 52.4999 3.99219 50.5335 3.99219C48.5792 3.99219 47.3993 5.4019 47.3993 7.06687C47.3994 8.74398 48.5793 10.1538 50.5335 10.1538ZM50.5335 8.7805C49.5624 8.7805 49.0217 7.9905 49.0217 7.06687C49.0217 6.15538 49.5624 5.36545 50.5335 5.36545C51.5044 5.36545 52.0575 6.15538 52.0575 7.06687C52.0576 7.9905 51.5045 8.7805 50.5335 8.7805Z" fill="white"/>
<path d="M56.6447 10.008V1.90198H55.0837V10.008H56.6447Z" fill="white"/>
<path d="M64.0056 10.0078V4.13794H62.4448V8.11196C62.1743 8.45225 61.695 8.7804 61.0928 8.7804C60.4291 8.7804 59.9989 8.513 59.9989 7.69877V4.13794H58.438V8.3064C58.438 9.44878 59.0525 10.1537 60.3553 10.1537C61.3263 10.1537 62.0391 9.71619 62.4448 9.26648V10.0078H64.0056Z" fill="white"/>
<path d="M67.7928 10.1538C68.4442 10.1538 68.8621 9.98363 69.0956 9.77703L68.7638 8.61036C68.6778 8.6954 68.4565 8.78051 68.223 8.78051C67.8788 8.78051 67.6822 8.50095 67.6822 8.13636V5.48701H68.8867V4.13804H67.6822V2.53381H66.109V4.13804H65.1257V5.48701H66.109V8.54955C66.1089 9.59474 66.699 10.1538 67.7928 10.1538Z" fill="white"/>
<path d="M70.9751 3.5065C71.4913 3.5065 71.9093 3.09332 71.9093 2.58287C71.9093 2.07243 71.4913 1.67139 70.9751 1.67139C70.4712 1.67139 70.0411 2.07243 70.0411 2.58287C70.0411 3.09332 70.4713 3.5065 70.9751 3.5065ZM71.7618 10.0084V4.13851H70.2009V10.0084H71.7618Z" fill="white"/>
<path d="M76.3076 10.1538C78.2738 10.1538 79.454 8.74398 79.454 7.06687C79.454 5.4019 78.2738 3.99219 76.3076 3.99219C74.3532 3.99219 73.1734 5.4019 73.1734 7.06687C73.1734 8.74398 74.3533 10.1538 76.3076 10.1538ZM76.3076 8.7805C75.3369 8.7805 74.7957 7.9905 74.7957 7.06687C74.7957 6.15538 75.3369 5.36545 76.3076 5.36545C77.2783 5.36545 77.8314 6.15538 77.8314 7.06687C77.8314 7.9905 77.2783 8.7805 76.3076 8.7805Z" fill="white"/>
<path d="M86.4261 10.0079V5.86375C86.4261 4.72138 85.7989 3.99219 84.4959 3.99219C83.5252 3.99219 82.7999 4.45404 82.419 4.90367V4.13804H80.8585V10.0079H82.419V6.0582C82.6772 5.70575 83.1562 5.36545 83.7706 5.36545C84.4345 5.36545 84.8649 5.64493 84.8649 6.45923V10.0079H86.4261Z" fill="white"/>
<path d="M90.0001 2.81857L89.9973 2.78812C89.9954 2.76753 89.9935 2.74679 89.9911 2.72679C89.9642 2.47368 89.8774 2.24064 89.7333 2.03434C89.5195 1.72723 89.2262 1.52101 88.8615 1.42145C88.7636 1.39456 88.6599 1.37819 88.5533 1.37271L88.5367 1.37012L88.3952 1.37027L88.3011 1.37908C88.1112 1.39901 87.9312 1.45234 87.766 1.53767C87.429 1.71271 87.185 1.97827 87.0408 2.32708C86.9849 2.46338 86.9502 2.60879 86.938 2.7582C86.9357 2.77857 86.9334 2.79886 86.9318 2.82212L86.9319 2.95872L86.9348 2.98879C86.9366 3.00953 86.9385 3.03035 86.941 3.05049C86.9678 3.3025 87.0544 3.53516 87.1981 3.74198C87.3824 4.0085 87.6306 4.2008 87.9358 4.31354C88.1046 4.37583 88.2792 4.40739 88.4549 4.40739C88.4843 4.40739 88.5136 4.4065 88.5432 4.4048C88.9874 4.37857 89.3586 4.19435 89.6465 3.85702C89.8218 3.65198 89.9334 3.41101 89.9781 3.14138C89.9846 3.10531 89.9882 3.06886 89.9918 3.03242C89.9936 3.01309 89.9956 2.99375 89.9988 2.96761L90.0004 2.95894L90.0001 2.81857ZM88.4687 1.60627L88.4704 1.64323C89.1629 1.64412 89.7256 2.20338 89.7249 2.88983C89.7234 3.5762 89.159 4.13457 88.4653 4.13457C88.1293 4.1342 87.8133 4.00428 87.5756 3.76879C87.3381 3.53339 87.2075 3.22072 87.2079 2.88857C87.2086 2.2019 87.7741 1.64323 88.4687 1.64323V1.60627Z" fill="white"/>
<path d="M87.8531 2.06604C87.8486 2.06604 87.8446 2.06656 87.8383 2.06752L87.8052 2.0713V3.7879H88.0881V3.05627L88.197 3.05604C88.2297 3.05604 88.2622 3.05612 88.2967 3.05656C88.3299 3.05701 88.3642 3.05738 88.3952 3.06293C88.4487 3.07234 88.494 3.09908 88.5299 3.14242C88.5663 3.18619 88.6131 3.24449 88.653 3.3073C88.7271 3.42375 88.7994 3.54153 88.8716 3.65931L88.9334 3.7599C88.9387 3.76783 88.953 3.78894 88.9845 3.78894H88.9851C89.028 3.78864 89.0708 3.78864 89.1135 3.78864H89.2199C89.2241 3.78864 89.2279 3.78827 89.2373 3.78723L89.2948 3.78242L89.2669 3.73242C89.2626 3.72479 89.2592 3.71946 89.2563 3.71486L89.1955 3.61523C89.1516 3.54323 89.1077 3.47131 89.0631 3.39975C89.0149 3.32323 88.9651 3.24412 88.9115 3.16893C88.8673 3.10642 88.8187 3.05656 88.7633 3.01775C88.7786 3.01382 88.7939 3.0096 88.809 3.00493C88.9348 2.96575 89.0264 2.89523 89.0814 2.79508C89.1621 2.64819 89.1666 2.49152 89.0948 2.3293C89.0432 2.21271 88.9585 2.13582 88.8432 2.10071C88.7678 2.07804 88.6843 2.0673 88.5802 2.06685C88.4159 2.06611 88.2518 2.06604 88.0878 2.06604H87.8531ZM88.0881 2.7939V2.32286H88.2502C88.3633 2.32286 88.4763 2.323 88.5891 2.32449C88.6217 2.32493 88.6582 2.33078 88.6976 2.34197C88.79 2.36804 88.8489 2.44404 88.8516 2.54041C88.8544 2.63612 88.8196 2.70434 88.7453 2.74908C88.7097 2.77049 88.6674 2.78271 88.6118 2.78752C88.568 2.7913 88.523 2.79338 88.4779 2.79367C88.4203 2.79397 88.363 2.79412 88.3056 2.79412L88.0881 2.7939ZM88.9845 3.75175V3.75183V3.75175Z" fill="white"/>
</g>
<defs>
<linearGradient id="paint0_linear_0_266" x1="0.375598" y1="2.96884" x2="12.5958" y2="13.9425" gradientUnits="userSpaceOnUse">
<stop stop-color="#F97695"/>
<stop offset="1" stop-color="#FEDD44"/>
</linearGradient>
<linearGradient id="paint1_linear_0_266" x1="15.7527" y1="-1.2431" x2="6.68863" y2="10.908" gradientUnits="userSpaceOnUse">
<stop stop-color="#4AB1FE"/>
<stop offset="1" stop-color="#07EBFE"/>
</linearGradient>
<linearGradient id="paint2_linear_0_266" x1="14.9749" y1="17.7992" x2="12.9393" y2="3.13858" gradientUnits="userSpaceOnUse">
<stop stop-color="#F3648A"/>
<stop offset="1" stop-color="#FF83D4"/>
</linearGradient>
<clipPath id="clip0_0_266">
<rect width="90" height="18" fill="white"/>
</clipPath>
</defs>
</svg>
