<svg width="24" height="29" viewBox="0 0 24 29" fill="none" xmlns="http://www.w3.org/2000/svg">
<path d="M16 0.333252H8V2.99992H16V0.333252ZM10.6667 17.6666H13.3333V9.66659H10.6667V17.6666ZM21.3733 8.85325L23.2667 6.95992C22.6933 6.27992 22.0667 5.63992 21.3867 5.07992L19.4933 6.97325C17.4267 5.31992 14.8267 4.33325 12 4.33325C5.37333 4.33325 0 9.70659 0 16.3333C0 22.9599 5.36 28.3333 12 28.3333C18.64 28.3333 24 22.9599 24 16.3333C24 13.5066 23.0133 10.9066 21.3733 8.85325ZM12 25.6666C6.84 25.6666 2.66667 21.4933 2.66667 16.3333C2.66667 11.1733 6.84 6.99992 12 6.99992C17.16 6.99992 21.3333 11.1733 21.3333 16.3333C21.3333 21.4933 17.16 25.6666 12 25.6666Z" fill="#1AA9E8"/>
</svg>
