<svg width="24" height="27" viewBox="0 0 24 27" fill="none" xmlns="http://www.w3.org/2000/svg">
<path d="M21.3333 2.99992H15.76C15.2 1.45325 13.7333 0.333252 12 0.333252C10.2667 0.333252 8.8 1.45325 8.24 2.99992H2.66667C1.2 2.99992 0 4.19992 0 5.66658V24.3333C0 25.7999 1.2 26.9999 2.66667 26.9999H21.3333C22.8 26.9999 24 25.7999 24 24.3333V5.66658C24 4.19992 22.8 2.99992 21.3333 2.99992ZM12 2.99992C12.7333 2.99992 13.3333 3.59992 13.3333 4.33325C13.3333 5.06659 12.7333 5.66658 12 5.66658C11.2667 5.66658 10.6667 5.06659 10.6667 4.33325C10.6667 3.59992 11.2667 2.99992 12 2.99992ZM9.33333 21.6666L4 16.3333L5.88 14.4533L9.33333 17.8933L18.12 9.10658L20 10.9999L9.33333 21.6666Z" fill="#1AA9E8"/>
</svg>
