<svg width="28" height="20" viewBox="0 0 28 20" fill="none" xmlns="http://www.w3.org/2000/svg">
<path d="M20 10.0001C21.84 10.0001 23.32 8.50675 23.32 6.66675C23.32 4.82675 21.84 3.33341 20 3.33341C18.16 3.33341 16.6667 4.82675 16.6667 6.66675C16.6667 8.50675 18.16 10.0001 20 10.0001ZM10 8.66675C12.2134 8.66675 13.9867 6.88008 13.9867 4.66675C13.9867 2.45341 12.2134 0.666748 10 0.666748C7.78669 0.666748 6.00002 2.45341 6.00002 4.66675C6.00002 6.88008 7.78669 8.66675 10 8.66675ZM20 12.6667C17.56 12.6667 12.6667 13.8934 12.6667 16.3334V19.3334H27.3334V16.3334C27.3334 13.8934 22.44 12.6667 20 12.6667ZM10 11.3334C6.89335 11.3334 0.666687 12.8934 0.666687 16.0001V19.3334H10V16.3334C10 15.2001 10.44 13.2134 13.16 11.7067C12 11.4667 10.88 11.3334 10 11.3334Z" fill="#1AA9E8"/>
</svg>
