<svg width="27" height="27" viewBox="0 0 27 27" fill="none" xmlns="http://www.w3.org/2000/svg">
<path d="M13.3333 0C5.97333 0 0 5.97333 0 13.3333C0 20.6933 5.97333 26.6667 13.3333 26.6667C20.6933 26.6667 26.6667 20.6933 26.6667 13.3333C26.6667 5.97333 20.6933 0 13.3333 0ZM18.1467 8.45333C19.5733 8.45333 20.72 9.6 20.72 11.0267C20.72 12.4533 19.5733 13.6 18.1467 13.6C16.72 13.6 15.5733 12.4533 15.5733 11.0267C15.56 9.6 16.72 8.45333 18.1467 8.45333ZM10.1467 6.34667C11.88 6.34667 13.2933 7.76 13.2933 9.49333C13.2933 11.2267 11.88 12.64 10.1467 12.64C8.41333 12.64 7 11.2267 7 9.49333C7 7.74667 8.4 6.34667 10.1467 6.34667ZM10.1467 18.52V23.52C6.94667 22.52 4.41333 20.0533 3.29333 16.9067C4.69333 15.4133 8.18667 14.6533 10.1467 14.6533C10.8533 14.6533 11.7467 14.76 12.68 14.9467C10.4933 16.1067 10.1467 17.64 10.1467 18.52ZM13.3333 24C12.9733 24 12.6267 23.9867 12.28 23.9467V18.52C12.28 16.6267 16.2 15.68 18.1467 15.68C19.5733 15.68 22.04 16.2 23.2667 17.2133C21.7067 21.1733 17.8533 24 13.3333 24Z" fill="#1AA9E8"/>
</svg>
