<svg width="30" height="30" viewBox="0 0 30 30" fill="none" xmlns="http://www.w3.org/2000/svg">
<path d="M15 9.66683C12.0533 9.66683 9.66665 12.0535 9.66665 15.0002C9.66665 17.9468 12.0533 20.3335 15 20.3335C17.9466 20.3335 20.3333 17.9468 20.3333 15.0002C20.3333 12.0535 17.9466 9.66683 15 9.66683ZM26.92 13.6668C26.3066 8.10683 21.8933 3.6935 16.3333 3.08016V0.333496H13.6666V3.08016C8.10665 3.6935 3.69331 8.10683 3.07998 13.6668H0.333313V16.3335H3.07998C3.69331 21.8935 8.10665 26.3068 13.6666 26.9202V29.6668H16.3333V26.9202C21.8933 26.3068 26.3066 21.8935 26.92 16.3335H29.6666V13.6668H26.92V13.6668ZM15 24.3335C9.83998 24.3335 5.66665 20.1602 5.66665 15.0002C5.66665 9.84016 9.83998 5.66683 15 5.66683C20.16 5.66683 24.3333 9.84016 24.3333 15.0002C24.3333 20.1602 20.16 24.3335 15 24.3335Z" fill="#1AA9E8"/>
</svg>
