<svg width="25" height="27" viewBox="0 0 25 27" fill="none" xmlns="http://www.w3.org/2000/svg">
<path d="M21.8333 3.00016H16.26C15.7 1.4535 14.2333 0.333496 12.5 0.333496C10.7667 0.333496 9.3 1.4535 8.74 3.00016H3.16667C1.7 3.00016 0.5 4.20016 0.5 5.66683V24.3335C0.5 25.8002 1.7 27.0002 3.16667 27.0002H21.8333C23.3 27.0002 24.5 25.8002 24.5 24.3335V5.66683C24.5 4.20016 23.3 3.00016 21.8333 3.00016ZM12.5 3.00016C13.2333 3.00016 13.8333 3.60016 13.8333 4.3335C13.8333 5.06683 13.2333 5.66683 12.5 5.66683C11.7667 5.66683 11.1667 5.06683 11.1667 4.3335C11.1667 3.60016 11.7667 3.00016 12.5 3.00016ZM15.1667 21.6668H5.83333V19.0002H15.1667V21.6668ZM19.1667 16.3335H5.83333V13.6668H19.1667V16.3335ZM19.1667 11.0002H5.83333V8.3335H19.1667V11.0002Z" fill="#1AA9E8"/>
</svg>
