<svg width="20" height="15" viewBox="0 0 20 15" fill="none" xmlns="http://www.w3.org/2000/svg">
<path d="M19.45 10.95C19.45 11.3833 19.3667 11.8167 19.2 12.25C19.0333 12.6833 18.7833 13.0833 18.45 13.45C18.1167 13.7833 17.7 14.0667 17.2 14.3C16.7333 14.5 16.2 14.6 15.6 14.6C14.9333 14.6 14.2833 14.4833 13.65 14.25C13.05 13.9833 12.5333 13.6167 12.1 13.15C11.7333 12.7167 11.45 12.2 11.25 11.6C11.05 11 10.95 10.3667 10.95 9.7C10.95 8.43333 11.1667 7.26666 11.6 6.2C12.0667 5.13333 12.7167 4.18333 13.55 3.35C13.9167 2.98333 14.3333 2.65 14.8 2.35C15.2667 2.01666 15.7 1.75 16.1 1.55C16.5333 1.31666 16.9 1.13333 17.2 0.999999C17.5 0.866666 17.6833 0.783332 17.75 0.749997L19.75 3.7C19.3833 3.83333 18.9667 4.01666 18.5 4.25C18.0667 4.45 17.65 4.71666 17.25 5.05C16.85 5.35 16.5167 5.71666 16.25 6.15C15.9833 6.58333 15.8333 7.08333 15.8 7.65C16.7667 7.65 17.6167 7.93333 18.35 8.5C19.0833 9.06667 19.45 9.88333 19.45 10.95ZM8.9 10.95C8.9 11.3833 8.81667 11.8167 8.65 12.25C8.48333 12.6833 8.23333 13.0833 7.9 13.45C7.56667 13.7833 7.15 14.0667 6.65 14.3C6.18333 14.5 5.65 14.6 5.05 14.6C4.38333 14.6 3.73333 14.4833 3.1 14.25C2.5 13.9833 1.98333 13.6167 1.55 13.15C1.18333 12.7167 0.9 12.2 0.7 11.6C0.5 11 0.4 10.3667 0.4 9.7C0.4 8.43333 0.616667 7.26666 1.05 6.2C1.51667 5.13333 2.16667 4.18333 3 3.35C3.36667 2.98333 3.78333 2.65 4.25 2.35C4.71667 2.01666 5.15 1.75 5.55 1.55C5.98333 1.31666 6.35 1.13333 6.65 0.999999C6.95 0.866666 7.13333 0.783332 7.2 0.749997L9.2 3.7C8.83333 3.83333 8.41667 4.01666 7.95 4.25C7.51667 4.45 7.1 4.71666 6.7 5.05C6.3 5.35 5.96667 5.71666 5.7 6.15C5.43333 6.58333 5.28333 7.08333 5.25 7.65C6.21667 7.65 7.06667 7.93333 7.8 8.5C8.53333 9.06667 8.9 9.88333 8.9 10.95Z" fill="black"/>
</svg>
